<svg width="19" height="19" viewBox="0 0 19 19" fill="none" xmlns="http://www.w3.org/2000/svg">
<path d="M19 14.25C19 14.8099 18.7776 15.3469 18.3817 15.7428C17.9858 16.1387 17.4488 16.3611 16.8889 16.3611H2.11111C1.55121 16.3611 1.01424 16.1387 0.61833 15.7428C0.22242 15.3469 0 14.8099 0 14.25V4.75003C0 4.19013 0.22242 3.65316 0.61833 3.25725C1.01424 2.86134 1.55121 2.63892 2.11111 2.63892H16.8889C17.4488 2.63892 17.9858 2.86134 18.3817 3.25725C18.7776 3.65316 19 4.19013 19 4.75003V14.25Z" fill="#141414"/>
<path d="M0 6.86108H19V12.1389H0V6.86108Z" fill="#EEEEEE"/>
<path d="M16.8889 2.63892H2.11111C1.55121 2.63892 1.01424 2.86134 0.61833 3.25725C0.22242 3.65316 0 4.19013 0 4.75003L0 6.86114H19V4.75003C19 4.19013 18.7776 3.65316 18.3817 3.25725C17.9858 2.86134 17.4488 2.63892 16.8889 2.63892Z" fill="#CE1225"/>
<path d="M7.78473 11.3798C7.78473 11.3798 7.79317 11.5118 7.90823 11.5777C7.90823 11.5777 7.87551 11.677 7.99901 11.7345C8.12251 11.792 8.56795 11.8828 9.34326 11.8828C10.1186 11.8828 10.5556 11.8005 10.6711 11.7424C10.7867 11.6849 10.7946 11.5529 10.7946 11.5529C10.7946 11.5529 10.9181 11.487 10.9102 11.4046C10.9023 11.3223 10.7371 11.2315 10.7371 11.2315C10.7371 11.2315 10.696 11.1244 10.5804 11.0832C10.4648 11.0421 10.0938 11.2648 9.38442 11.2315C8.67509 11.1983 8.27134 11.0911 8.1394 11.0996C8.00745 11.108 7.94992 11.24 7.94992 11.24C7.94992 11.24 7.80109 11.3059 7.78473 11.3798Z" fill="#BF9300"/>
<path d="M7.8755 11.372C7.86864 11.4211 7.97472 11.5287 7.97472 11.5287C7.97472 11.5287 7.97472 11.6522 8.08186 11.6855C8.189 11.7187 8.626 11.8011 9.33534 11.7926C10.0447 11.7842 10.5476 11.743 10.6052 11.6934C10.6627 11.6438 10.7123 11.5366 10.7123 11.5366C10.7123 11.5366 10.8279 11.4543 10.8194 11.3883C10.811 11.3224 10.6463 11.2812 10.6463 11.2812C10.6463 11.2812 10.5999 11.182 10.545 11.1408C10.4901 11.0996 10.1354 11.3055 9.3765 11.3055C8.63392 11.3055 8.20536 11.1239 8.13147 11.1324C8.05759 11.1408 8.00797 11.2807 8.00797 11.2807C8.00797 11.2807 7.88395 11.3144 7.8755 11.372Z" fill="#EEEEEE"/>
<path d="M11.0089 8.17205C11.0089 8.17205 10.9925 7.78466 10.6379 7.83374C10.2832 7.88335 10.2584 8.05647 9.87893 8.09763L9.80082 8.10502C9.73759 7.93341 9.70265 7.75267 9.69737 7.56985C9.69737 7.32233 9.77179 7.21519 9.51582 7.09169C9.26037 6.96819 9.21076 7.08324 9.21076 7.08324C9.21076 7.08324 9.01285 6.98402 8.92207 7.05844C8.83129 7.13285 8.8809 7.32233 8.92207 7.2648C8.96324 7.20727 9.12843 7.37194 9.12843 7.37194C9.18437 7.64585 9.02551 7.94247 8.91679 8.10766C8.87932 8.10397 8.84924 8.10238 8.80701 8.09763C8.42754 8.05647 8.40273 7.88335 8.04807 7.83374C7.6934 7.78413 7.67704 8.17205 7.67704 8.17205L7.53665 11.1656L7.82535 10.9429L7.82693 10.9075L8.42754 10.3739L8.52782 10.2737L8.27924 11.0004C8.27924 11.0004 7.89976 10.9756 8.0069 11.2807C8.0069 11.2807 8.06443 11.1075 8.16365 11.1403C8.26287 11.173 8.55104 11.2474 8.55104 11.2474L8.65026 11.4042L8.77376 11.2886L9.16115 11.2722C9.16115 11.2722 9.28465 11.3049 9.27673 11.4126C9.29928 11.3663 9.30613 11.3138 9.29626 11.2632L9.4129 11.2553C9.4006 11.3084 9.40693 11.3641 9.43085 11.4131C9.4224 11.306 9.54643 11.2727 9.54643 11.2727L9.93382 11.2891L10.0578 11.4047L10.1571 11.2479C10.1571 11.2479 10.4452 11.1735 10.5439 11.1408C10.6426 11.1081 10.7007 11.2812 10.7007 11.2812C10.8078 10.9761 10.4283 11.0009 10.4283 11.0009L10.1914 10.308L10.2579 10.3745L10.8585 10.908L10.8601 10.9434L11.1488 11.1661L11.0089 8.17205ZM9.3691 9.98655C8.77429 9.61922 8.72521 8.69191 8.72521 8.69191C8.72521 8.69191 9.09307 8.67291 9.36012 8.48555C9.60079 8.6993 10.0114 8.67502 10.0114 8.67502C10.0114 8.67502 9.98343 9.60602 9.3691 9.98655ZM10.7287 8.05699L10.2257 8.53516L10.1412 8.56894C10.0547 8.5721 9.63351 8.57316 9.36804 8.33724C9.03818 8.56841 8.58482 8.58477 8.58482 8.58477L8.51462 8.5568L7.95782 8.05699L7.81162 8.11716C7.81796 8.05752 7.85068 7.92347 8.03223 7.94985C8.3299 7.9926 8.45287 8.15622 8.76637 8.18894L8.85504 8.19791L8.8239 8.23802C8.87246 8.23802 8.94424 8.22377 8.99701 8.21216L9.05665 8.21797L9.02973 8.31191C9.07196 8.29924 9.13318 8.26283 9.18332 8.23063L9.32054 8.24383L9.35168 8.2871L9.45618 8.23485L9.52637 8.22799C9.58707 8.26335 9.67362 8.29502 9.67362 8.29502L9.68999 8.21269C9.7644 8.2623 9.8879 8.2623 9.8879 8.2623C9.87365 8.25069 9.8594 8.22113 9.84462 8.1958L9.92062 8.18788C10.2341 8.15516 10.3566 7.99155 10.6548 7.9488C10.8363 7.92294 10.869 8.05647 10.8754 8.1161L10.7287 8.05699Z" fill="#BF9300"/>
<path d="M9.17015 9.9702L8.87301 11.0996L8.37848 11.0009L8.8899 9.54956L9.17015 9.9702ZM9.53906 9.9702L9.83567 11.0996L10.3307 11.0009L9.81931 9.54956L9.53906 9.9702Z" fill="#EEEEEE"/>
<path d="M8.84872 8.78268C8.84872 8.78268 8.88989 9.26084 9.10417 9.63187V8.67554C9.10417 8.67554 8.96378 8.75787 8.84872 8.78268ZM9.87947 8.79904C9.87947 8.79904 9.83831 9.2772 9.62403 9.64823V8.6919C9.6235 8.6919 9.76389 8.77423 9.87947 8.79904Z" fill="#BF9300"/>
<path d="M8.94742 7.16624C8.94742 7.16624 9.00495 7.10871 9.17014 7.22377C9.27728 7.29871 9.37228 7.35571 9.37228 7.35571C9.37228 7.35571 9.43983 7.28446 9.53906 7.30082C9.63828 7.31718 9.58286 7.45493 9.59922 7.7431C9.61559 8.03179 9.73117 8.15529 9.73117 8.15529L9.59078 8.07296L9.59922 8.16374L9.44247 8.08932L9.36806 8.19646L9.29364 8.08088L9.17331 8.15424L9.13689 8.05607L8.9965 8.13049C8.9965 8.13049 9.20286 7.87504 9.21922 7.59427C9.22397 7.51035 9.20286 7.32193 9.20286 7.32193C9.20286 7.32193 9.07145 7.15779 8.94742 7.16624Z" fill="#EEEEEE"/>
<path d="M8.20537 11.4295C8.1109 11.486 8.14784 11.5203 8.20537 11.5451C8.2629 11.5699 8.60912 11.6116 9.31054 11.6275C10.0278 11.6438 10.4732 11.5615 10.5308 11.5282C10.5883 11.4955 10.5967 11.4375 10.498 11.4211C10.3988 11.4047 9.90429 11.4871 9.30209 11.4871C8.56004 11.4876 8.24654 11.4047 8.20537 11.4295Z" fill="#BF9300"/>
</svg>
