<svg width="20" height="20" viewBox="0 0 20 20" fill="none" xmlns="http://www.w3.org/2000/svg">
<g clip-path="url(#clip0_764_886)">
<path d="M6.96719 0.65784C4.96888 1.35107 3.24554 2.66685 2.0503 4.41191C0.855059 6.15696 0.250923 8.23932 0.326628 10.3531C0.402332 12.4669 1.15389 14.5007 2.4709 16.1558C3.78791 17.8108 5.60097 19 7.64375 19.5485C9.29988 19.9758 11.035 19.9946 12.7 19.6032C14.2083 19.2644 15.6028 18.5397 16.7469 17.5C17.9376 16.3849 18.8019 14.9664 19.2469 13.3969C19.7305 11.6901 19.8166 9.89524 19.4984 8.15003H10.1984V12.0078H15.5844C15.4767 12.6231 15.2461 13.2104 14.9062 13.7345C14.5663 14.2585 14.1242 14.7086 13.6062 15.0578C12.9486 15.4929 12.2072 15.7856 11.4297 15.9172C10.6499 16.0622 9.85009 16.0622 9.07031 15.9172C8.27998 15.7538 7.53234 15.4276 6.875 14.9594C5.81898 14.2119 5.02606 13.1499 4.60937 11.925C4.18565 10.6772 4.18565 9.32441 4.60937 8.07659C4.90598 7.20193 5.3963 6.40555 6.04375 5.7469C6.78467 4.97932 7.72271 4.43065 8.75493 4.16108C9.78715 3.89152 10.8737 3.91148 11.8953 4.21878C12.6934 4.46376 13.4232 4.8918 14.0266 5.46878C14.6339 4.86461 15.2401 4.25888 15.8453 3.65159C16.1578 3.32503 16.4984 3.01409 16.8062 2.67971C15.8853 1.82265 14.8042 1.15574 13.625 0.717215C11.4777 -0.0624883 9.12809 -0.0834421 6.96719 0.65784Z" fill="white"/>
<path d="M6.96719 0.657806C9.12791 -0.08398 11.4775 -0.0635778 13.625 0.715618C14.8044 1.15712 15.885 1.82724 16.8047 2.68749C16.4922 3.02187 16.1625 3.33437 15.8438 3.65937C15.2375 4.26458 14.6318 4.8677 14.0266 5.46874C13.4232 4.89177 12.6934 4.46373 11.8953 4.21874C10.874 3.91037 9.78753 3.88926 8.75503 4.15772C7.72253 4.42618 6.78393 4.97384 6.04219 5.74062C5.39474 6.39927 4.90442 7.19564 4.60781 8.07031L1.36875 5.56249C2.52814 3.26337 4.53555 1.50472 6.96719 0.657806Z" fill="#E33629"/>
<path d="M0.509374 8.04688C0.683469 7.18405 0.972504 6.34848 1.36875 5.5625L4.60781 8.07656C4.18408 9.32438 4.18408 10.6772 4.60781 11.925C3.52864 12.7583 2.44896 13.5958 1.36875 14.4375C0.376796 12.463 0.0742684 10.2133 0.509374 8.04688Z" fill="#F8BD00"/>
<path d="M10.1984 8.14844H19.4984C19.8166 9.89365 19.7305 11.6885 19.2469 13.3953C18.8019 14.9648 17.9376 16.3834 16.7469 17.4984C15.7016 16.6828 14.6516 15.8734 13.6063 15.0578C14.1245 14.7082 14.5668 14.2576 14.9067 13.733C15.2466 13.2084 15.4771 12.6205 15.5844 12.0047H10.1984C10.1969 10.7203 10.1984 9.43437 10.1984 8.14844Z" fill="#587DBD"/>
<path d="M1.36719 14.4375C2.4474 13.6042 3.52708 12.7667 4.60625 11.925C5.02376 13.1503 5.81782 14.2123 6.875 14.9594C7.53439 15.4254 8.28364 15.7489 9.075 15.9094C9.85478 16.0544 10.6546 16.0544 11.4344 15.9094C12.2119 15.7778 12.9533 15.485 13.6109 15.05C14.6562 15.8656 15.7063 16.675 16.7516 17.4906C15.6076 18.5308 14.2132 19.2561 12.7047 19.5953C11.0397 19.9867 9.30457 19.9679 7.64844 19.5406C6.3386 19.1909 5.11512 18.5744 4.05469 17.7297C2.93228 16.8386 2.01556 15.7156 1.36719 14.4375Z" fill="#319F43"/>
</g>
<defs>
<clipPath id="clip0_764_886">
<rect width="20" height="20" fill="white"/>
</clipPath>
</defs>
</svg>
